<svg width="40" height="40" viewBox="0 0 40 40" fill="none" xmlns="http://www.w3.org/2000/svg">
<path d="M16.6162 20.1667H17.7002L19.6879 25.1421V28.7764C21.3319 29.0504 24.1268 28.1447 22.154 22.3299H27.9514" stroke="white" stroke-width="1.5" stroke-linecap="round" stroke-linejoin="round"/>
<path d="M26.395 22.3224H27.952C28.8069 22.3224 29.4999 21.6294 29.4999 20.7745V20.7745C29.4999 19.9196 28.8069 19.2265 27.952 19.2265H27.2337" stroke="white" stroke-width="1.5" stroke-linecap="round" stroke-linejoin="round"/>
<path d="M27.8511 19.2266H28.0056C28.7087 19.2266 29.2787 18.6566 29.2787 17.9535V17.9535C29.2787 17.2504 28.7087 16.6805 28.0056 16.6805H27.364" stroke="white" stroke-width="1.5" stroke-linecap="round" stroke-linejoin="round"/>
<path d="M27.4808 16.6804H27.6353C28.3384 16.6804 28.9084 16.1104 28.9084 15.4073V15.4073C28.9084 14.7042 28.3384 14.1343 27.6353 14.1343H26.9937" stroke="white" stroke-width="1.5" stroke-linecap="round" stroke-linejoin="round"/>
<path d="M26.6436 14.1343H26.7982C27.5013 14.1343 28.0712 13.5644 28.0712 12.8613V12.8613C28.0712 12.1582 27.5013 11.5882 26.7982 11.5882H20.6107C19.6541 11.5882 18.7063 11.7722 17.8192 12.1301L16.6401 12.6059" stroke="white" stroke-width="1.5" stroke-linecap="round" stroke-linejoin="round"/>
<rect width="5.73789" height="10.252" rx="2" transform="matrix(1 0 0 -1 10.5 21.4324)" stroke="white" stroke-width="1.5" stroke-linecap="round" stroke-linejoin="round"/>
</svg>
