<svg width="40" height="40" viewBox="0 0 40 40" fill="none" xmlns="http://www.w3.org/2000/svg">
<path d="M16.6162 19.8333H17.7002L19.6879 14.8578V11.2236C21.3319 10.9496 24.1268 11.8553 22.154 17.6701H27.9514" stroke="white" stroke-width="1.5" stroke-linecap="round" stroke-linejoin="round"/>
<path d="M26.395 17.6775H27.952C28.8069 17.6775 29.4999 18.3705 29.4999 19.2255V19.2255C29.4999 20.0804 28.8069 20.7734 27.952 20.7734H27.2337" stroke="white" stroke-width="1.5" stroke-linecap="round" stroke-linejoin="round"/>
<path d="M27.8511 20.7733H28.0056C28.7087 20.7733 29.2787 21.3433 29.2787 22.0464V22.0464C29.2787 22.7495 28.7087 23.3195 28.0056 23.3195H27.364" stroke="white" stroke-width="1.5" stroke-linecap="round" stroke-linejoin="round"/>
<path d="M27.4808 23.3195H27.6353C28.3384 23.3195 28.9084 23.8895 28.9084 24.5926V24.5926C28.9084 25.2957 28.3384 25.8657 27.6353 25.8657H26.9937" stroke="white" stroke-width="1.5" stroke-linecap="round" stroke-linejoin="round"/>
<path d="M26.6436 25.8656H26.7982C27.5013 25.8656 28.0712 26.4356 28.0712 27.1387V27.1387C28.0712 27.8418 27.5013 28.4117 26.7982 28.4117H20.6107C19.6541 28.4117 18.7063 28.2278 17.8192 27.8698L16.6401 27.3941" stroke="white" stroke-width="1.5" stroke-linecap="round" stroke-linejoin="round"/>
<rect x="10.5" y="18.5675" width="5.73789" height="10.252" rx="2" stroke="white" stroke-width="1.5" stroke-linecap="round" stroke-linejoin="round"/>
</svg>
